<svg width="60" height="60" viewBox="0 0 60 60" fill="none" xmlns="http://www.w3.org/2000/svg">
<g clip-path="url(#clip0_18_312)">
<mask id="path-1-outside-1_18_312" maskUnits="userSpaceOnUse" x="0" y="0" width="60" height="60" fill="black">
<rect fill="white" width="60" height="60"/>
<path fill-rule="evenodd" clip-rule="evenodd" d="M19.7129 1.07436C16.6523 1.43822 14.6397 2.01869 12.2287 3.23314C6.5281 6.10457 2.42631 11.6205 1.26512 17.9767C0.910645 19.9168 0.911779 23.2937 1.26762 25.1895C2.02749 29.2391 3.86928 32.8354 6.71305 35.8225C10.7031 40.0138 16.4009 42.3478 22.0375 42.1C22.9418 42.0603 23.8476 41.9978 24.0503 41.961L24.4188 41.8943V45.0026C24.4188 47.317 24.455 48.1573 24.5606 48.2923C24.6386 48.3921 28.4731 50.8551 33.0819 53.7657C39.986 58.1261 41.5134 59.0474 41.7567 58.9982C42.1576 58.9171 58.3152 50.3561 58.6363 50.0547L58.8914 49.8151V41.6366V33.4582L58.6363 33.2233C58.4051 33.0104 44.0436 25.1362 42.5623 24.4101L41.9386 24.1044V21.5919C41.9386 18.7173 41.7654 17.5618 40.9724 15.1479C38.1946 6.69208 30.1136 0.894356 21.2765 1.017C20.6036 1.0263 19.9 1.05214 19.7129 1.07436ZM36.3255 1.2267C36.0822 1.46984 36.0265 2.01359 36.2097 2.3558C36.4443 2.79402 36.8012 2.81363 44.5636 2.81363H52.0876V13.3258V23.8379L50.187 21.9405C48.5114 20.2677 48.2429 20.0431 47.9191 20.0431C47.4408 20.0431 47.0982 20.3864 47.0982 20.8658C47.0982 21.197 47.3868 21.5233 49.9055 24.0397C52.3126 26.4442 52.761 26.8442 53.0498 26.8442C53.3386 26.8442 53.7868 26.4442 56.1958 24.0363C59.2135 21.0196 59.2557 20.9592 58.7698 20.3418C58.5934 20.1177 58.4326 20.0431 58.1253 20.0431C57.7474 20.0431 57.5691 20.1889 55.809 21.9374L53.902 23.8317V12.6941V1.55644L53.6236 1.27828L53.3453 1H44.9487C36.7034 1 36.5482 1.00408 36.3255 1.2267ZM25.2422 3.14405C27.6875 3.67748 29.8779 4.60822 31.9718 6.00346C33.7166 7.166 35.877 9.33465 37.0378 11.0884C39.4656 14.7565 40.5522 18.8835 40.1916 23.0661C40.1174 23.9282 40.016 24.6741 39.9665 24.7235C39.859 24.831 30.1954 29.9926 26.96 31.6706C25.2534 32.5558 24.6488 32.9246 24.5504 33.1408C24.4601 33.3387 24.4188 34.474 24.4188 36.7552V40.0811L24.0503 40.1438C23.8476 40.1782 23.0949 40.2391 22.3777 40.279C19.2398 40.4538 15.9391 39.7324 12.9713 38.223C7.92866 35.6586 4.33353 30.9739 3.08832 25.3446C2.75108 23.8198 2.66693 20.5473 2.9206 18.8229C3.36172 15.8255 4.58515 12.8637 6.40619 10.3849C7.32981 9.12755 9.37606 7.12746 10.7 6.188C12.6849 4.77926 15.2534 3.66876 17.6975 3.16241C19.302 2.82995 19.2724 2.83211 21.8107 2.86895C23.6676 2.89581 24.358 2.95124 25.2422 3.14405ZM20.8533 4.65254C20.72 4.84263 20.6767 5.20377 20.6767 6.12611C20.6767 7.56194 20.8053 7.80111 21.5774 7.80111C22.26 7.80111 22.3777 7.55094 22.3777 6.10083C22.3777 4.62329 22.2662 4.40055 21.5272 4.40055C21.1418 4.40055 20.99 4.45723 20.8533 4.65254ZM29.1584 6.56036C28.8472 6.74172 27.9141 8.49278 27.9004 8.9208C27.8914 9.20724 27.9671 9.37149 28.2011 9.57257C28.8293 10.1127 29.2651 9.86094 29.9804 8.54492C30.2874 7.97998 30.5395 7.40064 30.5404 7.25759C30.5445 6.67473 29.6963 6.24683 29.1584 6.56036ZM12.5842 6.78922C12.1375 7.14038 12.189 7.60535 12.7937 8.68015C13.3961 9.75099 13.5395 9.88678 14.0682 9.88678C14.5291 9.88678 14.8935 9.53358 14.8935 9.08675C14.8935 8.76381 14.0519 7.18017 13.6832 6.80928C13.3669 6.4911 12.9724 6.48385 12.5842 6.78922ZM20.9035 10.4082C20.686 10.6256 20.6767 10.786 20.6767 14.3106V17.9861L20.0646 18.2663C18.8131 18.8391 18.0704 19.9369 17.9798 21.3485C17.9186 22.3035 18.1247 23.0609 18.6396 23.7712L18.971 24.2286L17.3291 27.0047C16.4262 28.5316 15.6873 29.9038 15.6873 30.054C15.6873 30.2043 15.8218 30.4617 15.9862 30.6261C16.3623 31.002 16.8538 31.0187 17.1949 30.6675C17.3324 30.5259 18.1324 29.2356 18.9727 27.8001L20.5006 25.1901L21.5241 25.1954C22.4201 25.1999 22.6278 25.1613 23.1897 24.8855C23.93 24.5221 24.5671 23.8681 24.9119 23.1174C25.2785 22.3193 25.2533 20.988 24.8555 20.1397C24.4755 19.3291 23.7747 18.6255 22.9898 18.2663L22.3777 17.9861V14.3106C22.3777 10.786 22.3684 10.6256 22.1509 10.4082C22.0105 10.2679 21.7729 10.1815 21.5272 10.1815C21.2815 10.1815 21.0439 10.2679 20.9035 10.4082ZM34.64 12.7603C33.4575 13.3707 33.1126 13.6836 33.1126 14.1462C33.1126 14.614 33.4775 14.9423 33.9977 14.9423C34.4124 14.9423 35.9281 14.1659 36.2404 13.7936C36.6022 13.3623 36.4796 12.7607 35.9771 12.501C35.5502 12.2803 35.5815 12.2743 34.64 12.7603ZM6.6238 12.7472C6.35936 13.0833 6.31808 13.5624 6.53048 13.8319C6.78415 14.1537 8.51934 15.0556 8.88471 15.0556C9.31006 15.0556 9.79064 14.6155 9.79064 14.2259C9.79064 13.7955 9.43514 13.4498 8.45834 12.9303C7.3915 12.363 6.96002 12.3199 6.6238 12.7472ZM22.0309 19.8145C22.2447 19.8758 22.5879 20.0889 22.7934 20.2881C23.5784 21.0485 23.5722 22.0288 22.7775 22.8232C21.9589 23.6416 20.9564 23.6226 20.1898 22.7744C19.5065 22.0184 19.5355 20.991 20.2599 20.2891C20.8062 19.7598 21.3407 19.6167 22.0309 19.8145ZM4.59967 20.8997C4.40429 21.0364 4.34759 21.1881 4.34759 21.5734C4.34759 22.3128 4.56996 22.4235 6.05398 22.4235C7.16425 22.4235 7.27527 22.4034 7.50297 22.1612C7.66252 21.9913 7.74949 21.7538 7.74949 21.4874C7.74949 20.8453 7.47779 20.7232 6.04854 20.7232C5.14874 20.7232 4.78904 20.767 4.59967 20.8997ZM35.438 20.9855C35.1243 21.3194 35.1149 21.8935 35.4183 22.1968C35.6187 22.3971 35.7963 22.4235 36.9409 22.4235C38.2058 22.4235 38.2423 22.4164 38.4717 22.1248C38.601 21.9606 38.7068 21.7124 38.7068 21.5734C38.7068 21.4343 38.601 21.1861 38.4717 21.0219C38.2428 20.7308 38.2042 20.7232 36.9607 20.7232C35.7735 20.7232 35.6674 20.7415 35.438 20.9855ZM48.9328 29.8626C52.918 32.0215 56.1639 33.7999 56.1459 33.8149C56.128 33.8299 55.2617 34.3074 54.2211 34.8762L52.3291 35.9103L45.0578 31.9278C41.0587 29.7375 37.8279 27.9065 37.8782 27.8592C38.0157 27.7296 41.4694 25.9413 41.5861 25.9392C41.6416 25.9382 44.9476 27.7038 48.9328 29.8626ZM7.78 28.6632C6.72971 29.2334 6.50213 29.4548 6.50213 29.906C6.50213 30.2029 7.08737 30.8115 7.37279 30.8115C7.48709 30.8115 8.06508 30.539 8.65723 30.2059C9.84767 29.5363 10.0454 29.2729 9.80118 28.6831C9.67077 28.3686 9.27366 28.0888 8.96318 28.0929C8.88811 28.0938 8.35571 28.3504 7.78 28.6632ZM43.683 33.0632L51.4073 37.2984V39.5244V41.7505L50.483 42.317C49.9746 42.6286 49.5185 42.8995 49.4694 42.9189C49.4204 42.9384 49.3643 42.0088 49.3449 40.8531C49.3124 38.9272 49.2905 38.7335 49.0826 38.5312C48.9579 38.41 45.4879 36.4701 41.3716 34.2204C37.2553 31.9707 33.8875 30.0769 33.8875 30.0121C33.8875 29.8955 35.7476 28.7782 35.887 28.811C35.9264 28.8203 39.4347 30.7338 43.683 33.0632ZM39.9811 35.4856C43.582 37.4348 46.5277 39.055 46.5269 39.0862C46.5261 39.1174 45.4336 39.7193 44.0991 40.4239L41.6725 41.7049L35.3987 38.1708C31.948 36.2271 28.704 34.4009 28.1896 34.1127C27.6752 33.8245 27.2552 33.5631 27.256 33.532C27.2569 33.5008 28.2872 32.934 29.5456 32.2725L31.8336 31.0697L32.6337 31.5057C33.0738 31.7456 36.3801 33.5364 39.9811 35.4856ZM13.9061 33.3081C13.6355 33.4158 13.3226 33.8656 12.743 34.9796C12.4076 35.6245 12.3864 35.7223 12.515 36.0325C12.7662 36.6386 13.5275 36.7996 13.9569 36.3374C14.3046 35.9631 15.1169 34.4222 15.1187 34.1334C15.1206 33.8388 14.7039 33.3474 14.3832 33.2661C14.2585 33.2343 14.0438 33.2532 13.9061 33.3081ZM33.5995 39.1996L40.7463 43.2236L40.7471 49.883C40.7476 53.5457 40.7274 56.5424 40.7024 56.5424C40.6773 56.5424 37.4242 54.4856 33.4733 51.9719L26.2899 47.4014L26.2605 41.2503C26.2417 37.2831 26.2706 35.1129 26.342 35.1375C26.4029 35.1585 29.6688 36.9864 33.5995 39.1996ZM20.9035 35.459C20.7031 35.6592 20.6767 35.8368 20.6767 36.9809C20.6767 38.2454 20.6839 38.2819 20.9755 38.5112C21.1398 38.6404 21.3881 38.7462 21.5272 38.7462C21.6663 38.7462 21.9146 38.6404 22.0789 38.5112C22.3703 38.2821 22.3777 38.2447 22.3777 36.9892C22.3777 35.7337 22.3703 35.6963 22.0789 35.4672C21.7007 35.1698 21.1963 35.1663 20.9035 35.459ZM57.0771 42.1348V48.924L49.8481 52.7494C45.8721 54.8533 42.5808 56.596 42.534 56.622C42.4871 56.6479 42.4489 53.6621 42.4489 49.9868V43.3046L44.8717 41.9888C46.2043 41.2652 47.3237 40.6731 47.3594 40.6731C47.3952 40.6731 47.4403 41.6128 47.4597 42.7613C47.494 44.7921 47.5027 44.8575 47.7699 45.1417C47.9212 45.3024 48.1696 45.4339 48.3218 45.4339C48.6213 45.4339 52.5652 43.2943 52.9381 42.9295C53.1487 42.7236 53.169 42.5168 53.2216 40.0388L53.2783 37.3698L55.0927 36.3658C56.0905 35.8134 56.9452 35.358 56.9921 35.3535C57.0389 35.3492 57.0771 38.4008 57.0771 42.1348ZM28.4282 40.3332C28.1158 40.4579 27.8207 40.88 27.8207 41.2022C27.8207 41.3407 27.9355 41.5794 28.0759 41.7326C28.2163 41.8859 30.5508 43.2681 33.2638 44.8041C38.4465 47.7385 38.4493 47.7397 38.962 47.2778C39.0732 47.1776 39.1604 46.938 39.1604 46.7325C39.1604 46.5308 39.071 46.2625 38.962 46.1362C38.7552 45.897 29.2956 40.4108 28.898 40.2996C28.7733 40.2647 28.5619 40.2798 28.4282 40.3332ZM28.1474 43.9611C28.0465 44.0201 27.9016 44.2188 27.8254 44.4026C27.5405 45.0901 27.6149 45.1459 32.9236 48.2249C38.1241 51.2412 38.4233 51.3758 38.8593 50.8942C39.1361 50.5885 39.1008 49.9428 38.7919 49.663C38.6515 49.5358 36.3884 48.1752 33.7628 46.6394C28.993 43.8494 28.6329 43.6776 28.1474 43.9611Z"/>
</mask>
<path fill-rule="evenodd" clip-rule="evenodd" d="M19.7129 1.07436C16.6523 1.43822 14.6397 2.01869 12.2287 3.23314C6.5281 6.10457 2.42631 11.6205 1.26512 17.9767C0.910645 19.9168 0.911779 23.2937 1.26762 25.1895C2.02749 29.2391 3.86928 32.8354 6.71305 35.8225C10.7031 40.0138 16.4009 42.3478 22.0375 42.1C22.9418 42.0603 23.8476 41.9978 24.0503 41.961L24.4188 41.8943V45.0026C24.4188 47.317 24.455 48.1573 24.5606 48.2923C24.6386 48.3921 28.4731 50.8551 33.0819 53.7657C39.986 58.1261 41.5134 59.0474 41.7567 58.9982C42.1576 58.9171 58.3152 50.3561 58.6363 50.0547L58.8914 49.8151V41.6366V33.4582L58.6363 33.2233C58.4051 33.0104 44.0436 25.1362 42.5623 24.4101L41.9386 24.1044V21.5919C41.9386 18.7173 41.7654 17.5618 40.9724 15.1479C38.1946 6.69208 30.1136 0.894356 21.2765 1.017C20.6036 1.0263 19.9 1.05214 19.7129 1.07436ZM36.3255 1.2267C36.0822 1.46984 36.0265 2.01359 36.2097 2.3558C36.4443 2.79402 36.8012 2.81363 44.5636 2.81363H52.0876V13.3258V23.8379L50.187 21.9405C48.5114 20.2677 48.2429 20.0431 47.9191 20.0431C47.4408 20.0431 47.0982 20.3864 47.0982 20.8658C47.0982 21.197 47.3868 21.5233 49.9055 24.0397C52.3126 26.4442 52.761 26.8442 53.0498 26.8442C53.3386 26.8442 53.7868 26.4442 56.1958 24.0363C59.2135 21.0196 59.2557 20.9592 58.7698 20.3418C58.5934 20.1177 58.4326 20.0431 58.1253 20.0431C57.7474 20.0431 57.5691 20.1889 55.809 21.9374L53.902 23.8317V12.6941V1.55644L53.6236 1.27828L53.3453 1H44.9487C36.7034 1 36.5482 1.00408 36.3255 1.2267ZM25.2422 3.14405C27.6875 3.67748 29.8779 4.60822 31.9718 6.00346C33.7166 7.166 35.877 9.33465 37.0378 11.0884C39.4656 14.7565 40.5522 18.8835 40.1916 23.0661C40.1174 23.9282 40.016 24.6741 39.9665 24.7235C39.859 24.831 30.1954 29.9926 26.96 31.6706C25.2534 32.5558 24.6488 32.9246 24.5504 33.1408C24.4601 33.3387 24.4188 34.474 24.4188 36.7552V40.0811L24.0503 40.1438C23.8476 40.1782 23.0949 40.2391 22.3777 40.279C19.2398 40.4538 15.9391 39.7324 12.9713 38.223C7.92866 35.6586 4.33353 30.9739 3.08832 25.3446C2.75108 23.8198 2.66693 20.5473 2.9206 18.8229C3.36172 15.8255 4.58515 12.8637 6.40619 10.3849C7.32981 9.12755 9.37606 7.12746 10.7 6.188C12.6849 4.77926 15.2534 3.66876 17.6975 3.16241C19.302 2.82995 19.2724 2.83211 21.8107 2.86895C23.6676 2.89581 24.358 2.95124 25.2422 3.14405ZM20.8533 4.65254C20.72 4.84263 20.6767 5.20377 20.6767 6.12611C20.6767 7.56194 20.8053 7.80111 21.5774 7.80111C22.26 7.80111 22.3777 7.55094 22.3777 6.10083C22.3777 4.62329 22.2662 4.40055 21.5272 4.40055C21.1418 4.40055 20.99 4.45723 20.8533 4.65254ZM29.1584 6.56036C28.8472 6.74172 27.9141 8.49278 27.9004 8.9208C27.8914 9.20724 27.9671 9.37149 28.2011 9.57257C28.8293 10.1127 29.2651 9.86094 29.9804 8.54492C30.2874 7.97998 30.5395 7.40064 30.5404 7.25759C30.5445 6.67473 29.6963 6.24683 29.1584 6.56036ZM12.5842 6.78922C12.1375 7.14038 12.189 7.60535 12.7937 8.68015C13.3961 9.75099 13.5395 9.88678 14.0682 9.88678C14.5291 9.88678 14.8935 9.53358 14.8935 9.08675C14.8935 8.76381 14.0519 7.18017 13.6832 6.80928C13.3669 6.4911 12.9724 6.48385 12.5842 6.78922ZM20.9035 10.4082C20.686 10.6256 20.6767 10.786 20.6767 14.3106V17.9861L20.0646 18.2663C18.8131 18.8391 18.0704 19.9369 17.9798 21.3485C17.9186 22.3035 18.1247 23.0609 18.6396 23.7712L18.971 24.2286L17.3291 27.0047C16.4262 28.5316 15.6873 29.9038 15.6873 30.054C15.6873 30.2043 15.8218 30.4617 15.9862 30.6261C16.3623 31.002 16.8538 31.0187 17.1949 30.6675C17.3324 30.5259 18.1324 29.2356 18.9727 27.8001L20.5006 25.1901L21.5241 25.1954C22.4201 25.1999 22.6278 25.1613 23.1897 24.8855C23.93 24.5221 24.5671 23.8681 24.9119 23.1174C25.2785 22.3193 25.2533 20.988 24.8555 20.1397C24.4755 19.3291 23.7747 18.6255 22.9898 18.2663L22.3777 17.9861V14.3106C22.3777 10.786 22.3684 10.6256 22.1509 10.4082C22.0105 10.2679 21.7729 10.1815 21.5272 10.1815C21.2815 10.1815 21.0439 10.2679 20.9035 10.4082ZM34.64 12.7603C33.4575 13.3707 33.1126 13.6836 33.1126 14.1462C33.1126 14.614 33.4775 14.9423 33.9977 14.9423C34.4124 14.9423 35.9281 14.1659 36.2404 13.7936C36.6022 13.3623 36.4796 12.7607 35.9771 12.501C35.5502 12.2803 35.5815 12.2743 34.64 12.7603ZM6.6238 12.7472C6.35936 13.0833 6.31808 13.5624 6.53048 13.8319C6.78415 14.1537 8.51934 15.0556 8.88471 15.0556C9.31006 15.0556 9.79064 14.6155 9.79064 14.2259C9.79064 13.7955 9.43514 13.4498 8.45834 12.9303C7.3915 12.363 6.96002 12.3199 6.6238 12.7472ZM22.0309 19.8145C22.2447 19.8758 22.5879 20.0889 22.7934 20.2881C23.5784 21.0485 23.5722 22.0288 22.7775 22.8232C21.9589 23.6416 20.9564 23.6226 20.1898 22.7744C19.5065 22.0184 19.5355 20.991 20.2599 20.2891C20.8062 19.7598 21.3407 19.6167 22.0309 19.8145ZM4.59967 20.8997C4.40429 21.0364 4.34759 21.1881 4.34759 21.5734C4.34759 22.3128 4.56996 22.4235 6.05398 22.4235C7.16425 22.4235 7.27527 22.4034 7.50297 22.1612C7.66252 21.9913 7.74949 21.7538 7.74949 21.4874C7.74949 20.8453 7.47779 20.7232 6.04854 20.7232C5.14874 20.7232 4.78904 20.767 4.59967 20.8997ZM35.438 20.9855C35.1243 21.3194 35.1149 21.8935 35.4183 22.1968C35.6187 22.3971 35.7963 22.4235 36.9409 22.4235C38.2058 22.4235 38.2423 22.4164 38.4717 22.1248C38.601 21.9606 38.7068 21.7124 38.7068 21.5734C38.7068 21.4343 38.601 21.1861 38.4717 21.0219C38.2428 20.7308 38.2042 20.7232 36.9607 20.7232C35.7735 20.7232 35.6674 20.7415 35.438 20.9855ZM48.9328 29.8626C52.918 32.0215 56.1639 33.7999 56.1459 33.8149C56.128 33.8299 55.2617 34.3074 54.2211 34.8762L52.3291 35.9103L45.0578 31.9278C41.0587 29.7375 37.8279 27.9065 37.8782 27.8592C38.0157 27.7296 41.4694 25.9413 41.5861 25.9392C41.6416 25.9382 44.9476 27.7038 48.9328 29.8626ZM7.78 28.6632C6.72971 29.2334 6.50213 29.4548 6.50213 29.906C6.50213 30.2029 7.08737 30.8115 7.37279 30.8115C7.48709 30.8115 8.06508 30.539 8.65723 30.2059C9.84767 29.5363 10.0454 29.2729 9.80118 28.6831C9.67077 28.3686 9.27366 28.0888 8.96318 28.0929C8.88811 28.0938 8.35571 28.3504 7.78 28.6632ZM43.683 33.0632L51.4073 37.2984V39.5244V41.7505L50.483 42.317C49.9746 42.6286 49.5185 42.8995 49.4694 42.9189C49.4204 42.9384 49.3643 42.0088 49.3449 40.8531C49.3124 38.9272 49.2905 38.7335 49.0826 38.5312C48.9579 38.41 45.4879 36.4701 41.3716 34.2204C37.2553 31.9707 33.8875 30.0769 33.8875 30.0121C33.8875 29.8955 35.7476 28.7782 35.887 28.811C35.9264 28.8203 39.4347 30.7338 43.683 33.0632ZM39.9811 35.4856C43.582 37.4348 46.5277 39.055 46.5269 39.0862C46.5261 39.1174 45.4336 39.7193 44.0991 40.4239L41.6725 41.7049L35.3987 38.1708C31.948 36.2271 28.704 34.4009 28.1896 34.1127C27.6752 33.8245 27.2552 33.5631 27.256 33.532C27.2569 33.5008 28.2872 32.934 29.5456 32.2725L31.8336 31.0697L32.6337 31.5057C33.0738 31.7456 36.3801 33.5364 39.9811 35.4856ZM13.9061 33.3081C13.6355 33.4158 13.3226 33.8656 12.743 34.9796C12.4076 35.6245 12.3864 35.7223 12.515 36.0325C12.7662 36.6386 13.5275 36.7996 13.9569 36.3374C14.3046 35.9631 15.1169 34.4222 15.1187 34.1334C15.1206 33.8388 14.7039 33.3474 14.3832 33.2661C14.2585 33.2343 14.0438 33.2532 13.9061 33.3081ZM33.5995 39.1996L40.7463 43.2236L40.7471 49.883C40.7476 53.5457 40.7274 56.5424 40.7024 56.5424C40.6773 56.5424 37.4242 54.4856 33.4733 51.9719L26.2899 47.4014L26.2605 41.2503C26.2417 37.2831 26.2706 35.1129 26.342 35.1375C26.4029 35.1585 29.6688 36.9864 33.5995 39.1996ZM20.9035 35.459C20.7031 35.6592 20.6767 35.8368 20.6767 36.9809C20.6767 38.2454 20.6839 38.2819 20.9755 38.5112C21.1398 38.6404 21.3881 38.7462 21.5272 38.7462C21.6663 38.7462 21.9146 38.6404 22.0789 38.5112C22.3703 38.2821 22.3777 38.2447 22.3777 36.9892C22.3777 35.7337 22.3703 35.6963 22.0789 35.4672C21.7007 35.1698 21.1963 35.1663 20.9035 35.459ZM57.0771 42.1348V48.924L49.8481 52.7494C45.8721 54.8533 42.5808 56.596 42.534 56.622C42.4871 56.6479 42.4489 53.6621 42.4489 49.9868V43.3046L44.8717 41.9888C46.2043 41.2652 47.3237 40.6731 47.3594 40.6731C47.3952 40.6731 47.4403 41.6128 47.4597 42.7613C47.494 44.7921 47.5027 44.8575 47.7699 45.1417C47.9212 45.3024 48.1696 45.4339 48.3218 45.4339C48.6213 45.4339 52.5652 43.2943 52.9381 42.9295C53.1487 42.7236 53.169 42.5168 53.2216 40.0388L53.2783 37.3698L55.0927 36.3658C56.0905 35.8134 56.9452 35.358 56.9921 35.3535C57.0389 35.3492 57.0771 38.4008 57.0771 42.1348ZM28.4282 40.3332C28.1158 40.4579 27.8207 40.88 27.8207 41.2022C27.8207 41.3407 27.9355 41.5794 28.0759 41.7326C28.2163 41.8859 30.5508 43.2681 33.2638 44.8041C38.4465 47.7385 38.4493 47.7397 38.962 47.2778C39.0732 47.1776 39.1604 46.938 39.1604 46.7325C39.1604 46.5308 39.071 46.2625 38.962 46.1362C38.7552 45.897 29.2956 40.4108 28.898 40.2996C28.7733 40.2647 28.5619 40.2798 28.4282 40.3332ZM28.1474 43.9611C28.0465 44.0201 27.9016 44.2188 27.8254 44.4026C27.5405 45.0901 27.6149 45.1459 32.9236 48.2249C38.1241 51.2412 38.4233 51.3758 38.8593 50.8942C39.1361 50.5885 39.1008 49.9428 38.7919 49.663C38.6515 49.5358 36.3884 48.1752 33.7628 46.6394C28.993 43.8494 28.6329 43.6776 28.1474 43.9611Z" fill="#AEA896"/>
<path fill-rule="evenodd" clip-rule="evenodd" d="M19.7129 1.07436C16.6523 1.43822 14.6397 2.01869 12.2287 3.23314C6.5281 6.10457 2.42631 11.6205 1.26512 17.9767C0.910645 19.9168 0.911779 23.2937 1.26762 25.1895C2.02749 29.2391 3.86928 32.8354 6.71305 35.8225C10.7031 40.0138 16.4009 42.3478 22.0375 42.1C22.9418 42.0603 23.8476 41.9978 24.0503 41.961L24.4188 41.8943V45.0026C24.4188 47.317 24.455 48.1573 24.5606 48.2923C24.6386 48.3921 28.4731 50.8551 33.0819 53.7657C39.986 58.1261 41.5134 59.0474 41.7567 58.9982C42.1576 58.9171 58.3152 50.3561 58.6363 50.0547L58.8914 49.8151V41.6366V33.4582L58.6363 33.2233C58.4051 33.0104 44.0436 25.1362 42.5623 24.4101L41.9386 24.1044V21.5919C41.9386 18.7173 41.7654 17.5618 40.9724 15.1479C38.1946 6.69208 30.1136 0.894356 21.2765 1.017C20.6036 1.0263 19.9 1.05214 19.7129 1.07436ZM36.3255 1.2267C36.0822 1.46984 36.0265 2.01359 36.2097 2.3558C36.4443 2.79402 36.8012 2.81363 44.5636 2.81363H52.0876V13.3258V23.8379L50.187 21.9405C48.5114 20.2677 48.2429 20.0431 47.9191 20.0431C47.4408 20.0431 47.0982 20.3864 47.0982 20.8658C47.0982 21.197 47.3868 21.5233 49.9055 24.0397C52.3126 26.4442 52.761 26.8442 53.0498 26.8442C53.3386 26.8442 53.7868 26.4442 56.1958 24.0363C59.2135 21.0196 59.2557 20.9592 58.7698 20.3418C58.5934 20.1177 58.4326 20.0431 58.1253 20.0431C57.7474 20.0431 57.5691 20.1889 55.809 21.9374L53.902 23.8317V12.6941V1.55644L53.6236 1.27828L53.3453 1H44.9487C36.7034 1 36.5482 1.00408 36.3255 1.2267ZM25.2422 3.14405C27.6875 3.67748 29.8779 4.60822 31.9718 6.00346C33.7166 7.166 35.877 9.33465 37.0378 11.0884C39.4656 14.7565 40.5522 18.8835 40.1916 23.0661C40.1174 23.9282 40.016 24.6741 39.9665 24.7235C39.859 24.831 30.1954 29.9926 26.96 31.6706C25.2534 32.5558 24.6488 32.9246 24.5504 33.1408C24.4601 33.3387 24.4188 34.474 24.4188 36.7552V40.0811L24.0503 40.1438C23.8476 40.1782 23.0949 40.2391 22.3777 40.279C19.2398 40.4538 15.9391 39.7324 12.9713 38.223C7.92866 35.6586 4.33353 30.9739 3.08832 25.3446C2.75108 23.8198 2.66693 20.5473 2.9206 18.8229C3.36172 15.8255 4.58515 12.8637 6.40619 10.3849C7.32981 9.12755 9.37606 7.12746 10.7 6.188C12.6849 4.77926 15.2534 3.66876 17.6975 3.16241C19.302 2.82995 19.2724 2.83211 21.8107 2.86895C23.6676 2.89581 24.358 2.95124 25.2422 3.14405ZM20.8533 4.65254C20.72 4.84263 20.6767 5.20377 20.6767 6.12611C20.6767 7.56194 20.8053 7.80111 21.5774 7.80111C22.26 7.80111 22.3777 7.55094 22.3777 6.10083C22.3777 4.62329 22.2662 4.40055 21.5272 4.40055C21.1418 4.40055 20.99 4.45723 20.8533 4.65254ZM29.1584 6.56036C28.8472 6.74172 27.9141 8.49278 27.9004 8.9208C27.8914 9.20724 27.9671 9.37149 28.2011 9.57257C28.8293 10.1127 29.2651 9.86094 29.9804 8.54492C30.2874 7.97998 30.5395 7.40064 30.5404 7.25759C30.5445 6.67473 29.6963 6.24683 29.1584 6.56036ZM12.5842 6.78922C12.1375 7.14038 12.189 7.60535 12.7937 8.68015C13.3961 9.75099 13.5395 9.88678 14.0682 9.88678C14.5291 9.88678 14.8935 9.53358 14.8935 9.08675C14.8935 8.76381 14.0519 7.18017 13.6832 6.80928C13.3669 6.4911 12.9724 6.48385 12.5842 6.78922ZM20.9035 10.4082C20.686 10.6256 20.6767 10.786 20.6767 14.3106V17.9861L20.0646 18.2663C18.8131 18.8391 18.0704 19.9369 17.9798 21.3485C17.9186 22.3035 18.1247 23.0609 18.6396 23.7712L18.971 24.2286L17.3291 27.0047C16.4262 28.5316 15.6873 29.9038 15.6873 30.054C15.6873 30.2043 15.8218 30.4617 15.9862 30.6261C16.3623 31.002 16.8538 31.0187 17.1949 30.6675C17.3324 30.5259 18.1324 29.2356 18.9727 27.8001L20.5006 25.1901L21.5241 25.1954C22.4201 25.1999 22.6278 25.1613 23.1897 24.8855C23.93 24.5221 24.5671 23.8681 24.9119 23.1174C25.2785 22.3193 25.2533 20.988 24.8555 20.1397C24.4755 19.3291 23.7747 18.6255 22.9898 18.2663L22.3777 17.9861V14.3106C22.3777 10.786 22.3684 10.6256 22.1509 10.4082C22.0105 10.2679 21.7729 10.1815 21.5272 10.1815C21.2815 10.1815 21.0439 10.2679 20.9035 10.4082ZM34.64 12.7603C33.4575 13.3707 33.1126 13.6836 33.1126 14.1462C33.1126 14.614 33.4775 14.9423 33.9977 14.9423C34.4124 14.9423 35.9281 14.1659 36.2404 13.7936C36.6022 13.3623 36.4796 12.7607 35.9771 12.501C35.5502 12.2803 35.5815 12.2743 34.64 12.7603ZM6.6238 12.7472C6.35936 13.0833 6.31808 13.5624 6.53048 13.8319C6.78415 14.1537 8.51934 15.0556 8.88471 15.0556C9.31006 15.0556 9.79064 14.6155 9.79064 14.2259C9.79064 13.7955 9.43514 13.4498 8.45834 12.9303C7.3915 12.363 6.96002 12.3199 6.6238 12.7472ZM22.0309 19.8145C22.2447 19.8758 22.5879 20.0889 22.7934 20.2881C23.5784 21.0485 23.5722 22.0288 22.7775 22.8232C21.9589 23.6416 20.9564 23.6226 20.1898 22.7744C19.5065 22.0184 19.5355 20.991 20.2599 20.2891C20.8062 19.7598 21.3407 19.6167 22.0309 19.8145ZM4.59967 20.8997C4.40429 21.0364 4.34759 21.1881 4.34759 21.5734C4.34759 22.3128 4.56996 22.4235 6.05398 22.4235C7.16425 22.4235 7.27527 22.4034 7.50297 22.1612C7.66252 21.9913 7.74949 21.7538 7.74949 21.4874C7.74949 20.8453 7.47779 20.7232 6.04854 20.7232C5.14874 20.7232 4.78904 20.767 4.59967 20.8997ZM35.438 20.9855C35.1243 21.3194 35.1149 21.8935 35.4183 22.1968C35.6187 22.3971 35.7963 22.4235 36.9409 22.4235C38.2058 22.4235 38.2423 22.4164 38.4717 22.1248C38.601 21.9606 38.7068 21.7124 38.7068 21.5734C38.7068 21.4343 38.601 21.1861 38.4717 21.0219C38.2428 20.7308 38.2042 20.7232 36.9607 20.7232C35.7735 20.7232 35.6674 20.7415 35.438 20.9855ZM48.9328 29.8626C52.918 32.0215 56.1639 33.7999 56.1459 33.8149C56.128 33.8299 55.2617 34.3074 54.2211 34.8762L52.3291 35.9103L45.0578 31.9278C41.0587 29.7375 37.8279 27.9065 37.8782 27.8592C38.0157 27.7296 41.4694 25.9413 41.5861 25.9392C41.6416 25.9382 44.9476 27.7038 48.9328 29.8626ZM7.78 28.6632C6.72971 29.2334 6.50213 29.4548 6.50213 29.906C6.50213 30.2029 7.08737 30.8115 7.37279 30.8115C7.48709 30.8115 8.06508 30.539 8.65723 30.2059C9.84767 29.5363 10.0454 29.2729 9.80118 28.6831C9.67077 28.3686 9.27366 28.0888 8.96318 28.0929C8.88811 28.0938 8.35571 28.3504 7.78 28.6632ZM43.683 33.0632L51.4073 37.2984V39.5244V41.7505L50.483 42.317C49.9746 42.6286 49.5185 42.8995 49.4694 42.9189C49.4204 42.9384 49.3643 42.0088 49.3449 40.8531C49.3124 38.9272 49.2905 38.7335 49.0826 38.5312C48.9579 38.41 45.4879 36.4701 41.3716 34.2204C37.2553 31.9707 33.8875 30.0769 33.8875 30.0121C33.8875 29.8955 35.7476 28.7782 35.887 28.811C35.9264 28.8203 39.4347 30.7338 43.683 33.0632ZM39.9811 35.4856C43.582 37.4348 46.5277 39.055 46.5269 39.0862C46.5261 39.1174 45.4336 39.7193 44.0991 40.4239L41.6725 41.7049L35.3987 38.1708C31.948 36.2271 28.704 34.4009 28.1896 34.1127C27.6752 33.8245 27.2552 33.5631 27.256 33.532C27.2569 33.5008 28.2872 32.934 29.5456 32.2725L31.8336 31.0697L32.6337 31.5057C33.0738 31.7456 36.3801 33.5364 39.9811 35.4856ZM13.9061 33.3081C13.6355 33.4158 13.3226 33.8656 12.743 34.9796C12.4076 35.6245 12.3864 35.7223 12.515 36.0325C12.7662 36.6386 13.5275 36.7996 13.9569 36.3374C14.3046 35.9631 15.1169 34.4222 15.1187 34.1334C15.1206 33.8388 14.7039 33.3474 14.3832 33.2661C14.2585 33.2343 14.0438 33.2532 13.9061 33.3081ZM33.5995 39.1996L40.7463 43.2236L40.7471 49.883C40.7476 53.5457 40.7274 56.5424 40.7024 56.5424C40.6773 56.5424 37.4242 54.4856 33.4733 51.9719L26.2899 47.4014L26.2605 41.2503C26.2417 37.2831 26.2706 35.1129 26.342 35.1375C26.4029 35.1585 29.6688 36.9864 33.5995 39.1996ZM20.9035 35.459C20.7031 35.6592 20.6767 35.8368 20.6767 36.9809C20.6767 38.2454 20.6839 38.2819 20.9755 38.5112C21.1398 38.6404 21.3881 38.7462 21.5272 38.7462C21.6663 38.7462 21.9146 38.6404 22.0789 38.5112C22.3703 38.2821 22.3777 38.2447 22.3777 36.9892C22.3777 35.7337 22.3703 35.6963 22.0789 35.4672C21.7007 35.1698 21.1963 35.1663 20.9035 35.459ZM57.0771 42.1348V48.924L49.8481 52.7494C45.8721 54.8533 42.5808 56.596 42.534 56.622C42.4871 56.6479 42.4489 53.6621 42.4489 49.9868V43.3046L44.8717 41.9888C46.2043 41.2652 47.3237 40.6731 47.3594 40.6731C47.3952 40.6731 47.4403 41.6128 47.4597 42.7613C47.494 44.7921 47.5027 44.8575 47.7699 45.1417C47.9212 45.3024 48.1696 45.4339 48.3218 45.4339C48.6213 45.4339 52.5652 43.2943 52.9381 42.9295C53.1487 42.7236 53.169 42.5168 53.2216 40.0388L53.2783 37.3698L55.0927 36.3658C56.0905 35.8134 56.9452 35.358 56.9921 35.3535C57.0389 35.3492 57.0771 38.4008 57.0771 42.1348ZM28.4282 40.3332C28.1158 40.4579 27.8207 40.88 27.8207 41.2022C27.8207 41.3407 27.9355 41.5794 28.0759 41.7326C28.2163 41.8859 30.5508 43.2681 33.2638 44.8041C38.4465 47.7385 38.4493 47.7397 38.962 47.2778C39.0732 47.1776 39.1604 46.938 39.1604 46.7325C39.1604 46.5308 39.071 46.2625 38.962 46.1362C38.7552 45.897 29.2956 40.4108 28.898 40.2996C28.7733 40.2647 28.5619 40.2798 28.4282 40.3332ZM28.1474 43.9611C28.0465 44.0201 27.9016 44.2188 27.8254 44.4026C27.5405 45.0901 27.6149 45.1459 32.9236 48.2249C38.1241 51.2412 38.4233 51.3758 38.8593 50.8942C39.1361 50.5885 39.1008 49.9428 38.7919 49.663C38.6515 49.5358 36.3884 48.1752 33.7628 46.6394C28.993 43.8494 28.6329 43.6776 28.1474 43.9611Z" stroke="#AEA896" stroke-width="0.4" mask="url(#path-1-outside-1_18_312)"/>
</g>
<defs>
<clipPath id="clip0_18_312">
<rect width="60" height="60" fill="white"/>
</clipPath>
</defs>
</svg>
