<svg width="40" height="40" viewBox="0 0 40 40" fill="none" xmlns="http://www.w3.org/2000/svg">
<rect width="40" height="40" rx="20" fill="#FAF9F9"/>
<g clip-path="url(#clip0_1_4329)">
<path d="M31 27H29V25C29 24.7348 28.8946 24.4804 28.7071 24.2929C28.5196 24.1054 28.2652 24 28 24C27.7348 24 27.4804 24.1054 27.2929 24.2929C27.1054 24.4804 27 24.7348 27 25V27H25C24.7348 27 24.4804 27.1054 24.2929 27.2929C24.1054 27.4804 24 27.7348 24 28C24 28.2652 24.1054 28.5196 24.2929 28.7071C24.4804 28.8946 24.7348 29 25 29H27V31C27 31.2652 27.1054 31.5196 27.2929 31.7071C27.4804 31.8946 27.7348 32 28 32C28.2652 32 28.5196 31.8946 28.7071 31.7071C28.8946 31.5196 29 31.2652 29 31V29H31C31.2652 29 31.5196 28.8946 31.7071 28.7071C31.8946 28.5196 32 28.2652 32 28C32 27.7348 31.8946 27.4804 31.7071 27.2929C31.5196 27.1054 31.2652 27 31 27Z" fill="#D0D0D0"/>
<path d="M29 14H26C26 12.4087 25.3679 10.8826 24.2426 9.75736C23.1174 8.63214 21.5913 8 20 8C18.4087 8 16.8826 8.63214 15.7574 9.75736C14.6321 10.8826 14 12.4087 14 14H11C10.2044 14 9.44129 14.3161 8.87868 14.8787C8.31607 15.4413 8 16.2044 8 17V27C8.00159 28.3256 8.52888 29.5964 9.46622 30.5338C10.4036 31.4711 11.6744 31.9984 13 32H22C22.2652 32 22.5196 31.8946 22.7071 31.7071C22.8946 31.5196 23 31.2652 23 31C23 30.7348 22.8946 30.4804 22.7071 30.2929C22.5196 30.1054 22.2652 30 22 30H13C12.2044 30 11.4413 29.6839 10.8787 29.1213C10.3161 28.5587 10 27.7956 10 27V17C10 16.7348 10.1054 16.4804 10.2929 16.2929C10.4804 16.1054 10.7348 16 11 16H14V18C14 18.2652 14.1054 18.5196 14.2929 18.7071C14.4804 18.8946 14.7348 19 15 19C15.2652 19 15.5196 18.8946 15.7071 18.7071C15.8946 18.5196 16 18.2652 16 18V16H24V18C24 18.2652 24.1054 18.5196 24.2929 18.7071C24.4804 18.8946 24.7348 19 25 19C25.2652 19 25.5196 18.8946 25.7071 18.7071C25.8946 18.5196 26 18.2652 26 18V16H29C29.2652 16 29.5196 16.1054 29.7071 16.2929C29.8946 16.4804 30 16.7348 30 17V22C30 22.2652 30.1054 22.5196 30.2929 22.7071C30.4804 22.8946 30.7348 23 31 23C31.2652 23 31.5196 22.8946 31.7071 22.7071C31.8946 22.5196 32 22.2652 32 22V17C32 16.2044 31.6839 15.4413 31.1213 14.8787C30.5587 14.3161 29.7956 14 29 14ZM16 14C16 12.9391 16.4214 11.9217 17.1716 11.1716C17.9217 10.4214 18.9391 10 20 10C21.0609 10 22.0783 10.4214 22.8284 11.1716C23.5786 11.9217 24 12.9391 24 14H16Z" fill="#D0D0D0"/>
</g>
<defs>
<clipPath id="clip0_1_4329">
<rect width="24" height="24" fill="white" transform="translate(8 8)"/>
</clipPath>
</defs>
</svg>
