<svg width="24" height="25" viewBox="0 0 24 25" fill="none" xmlns="http://www.w3.org/2000/svg">
<g clip-path="url(#clip0_550_5974)">
<path d="M21.7956 4.60294C20.5222 3.39514 18.834 2.66081 17.0379 2.5335C15.2417 2.40618 13.4571 2.89434 12.0085 3.90919C10.4824 2.8329 8.58295 2.34485 6.69259 2.54334C4.80224 2.74183 3.06141 3.6121 1.82066 4.97891C0.579915 6.34572 -0.0685862 8.10754 0.00575165 9.90957C0.0800895 11.7116 0.871744 13.42 2.2213 14.6907L11.1569 23.1636C11.2684 23.2702 11.401 23.3548 11.5472 23.4125C11.6934 23.4703 11.8501 23.5 12.0085 23.5C12.1668 23.5 12.3236 23.4703 12.4697 23.4125C12.6159 23.3548 12.7485 23.2702 12.86 23.1636L21.7956 14.6907C22.4945 14.0285 23.0488 13.2422 23.4271 12.3768C23.8053 11.5113 24 10.5837 24 9.64684C24 8.71002 23.8053 7.78237 23.4271 6.91692C23.0488 6.05146 22.4945 5.26516 21.7956 4.60294ZM20.1045 13.0872L12.0085 20.7525L3.91246 13.0872C3.19902 12.4079 2.71302 11.5439 2.51543 10.6037C2.31783 9.66348 2.41744 8.68888 2.80175 7.80214C3.18607 6.91541 3.83798 6.15602 4.6757 5.61925C5.51342 5.08248 6.49966 4.79223 7.51068 4.78491C8.86135 4.78804 10.1555 5.29935 11.1089 6.20653C11.2204 6.31312 11.3531 6.39773 11.4992 6.45547C11.6454 6.51321 11.8022 6.54293 11.9605 6.54293C12.1188 6.54293 12.2756 6.51321 12.4218 6.45547C12.5679 6.39773 12.7006 6.31312 12.8121 6.20653C13.7936 5.40005 15.0615 4.97727 16.3594 5.02377C17.6572 5.07026 18.8879 5.58255 19.8024 6.45694C20.717 7.33134 21.247 8.50254 21.2853 9.73349C21.3235 10.9644 20.9631 12.1632 20.1045 13.0872Z" fill="#F4F2ED"/>
</g>
<defs>
<clipPath id="clip0_550_5974">
<rect width="24" height="24" fill="white" transform="translate(0 0.5)"/>
</clipPath>
</defs>
</svg>
