<svg width="263" height="53" viewBox="0 0 263 53" fill="none" xmlns="http://www.w3.org/2000/svg">
<path d="M3.99406 28.2901H0V4.02705H3.81733L21.6315 23.1602V4.02705H25.6256V28.2901H21.8083L3.99406 9.15695V28.2901Z" fill="#4F4A45"/>
<path d="M45.0367 29.122C43.458 29.122 41.997 28.9949 40.6539 28.7407C39.3107 28.5096 38.0265 28.0937 36.8012 27.4929C35.5994 26.8921 34.5744 26.1296 33.7261 25.2052C32.8778 24.2809 32.2063 23.1024 31.7114 21.6698C31.2166 20.2371 30.9692 18.5964 30.9692 16.7478V15.5693C30.9692 13.2586 31.3462 11.2713 32.1002 9.60755C32.8778 7.9438 33.95 6.66132 35.3167 5.76012C36.7069 4.85892 38.2032 4.21191 39.8056 3.81908C41.4315 3.40314 43.2341 3.19517 45.2135 3.19517C46.7922 3.19517 48.2532 3.32226 49.5963 3.57645C50.9395 3.80752 52.2119 4.22346 53.4137 4.82426C54.639 5.42506 55.6758 6.18762 56.5241 7.11192C57.3724 8.03623 58.0439 9.21472 58.5388 10.6474C59.0336 12.0801 59.281 13.7207 59.281 15.5693V16.7478C59.281 19.0586 58.8922 21.0459 58.1146 22.7096C57.3606 24.3734 56.2884 25.6558 54.8982 26.557C53.5315 27.4582 52.0352 28.1053 50.4093 28.4981C48.8069 28.914 47.0161 29.122 45.0367 29.122ZM41.4315 25.5519C42.4918 25.806 43.7172 25.9331 45.1074 25.9331C46.4977 25.9331 47.723 25.806 48.7834 25.5519C49.8673 25.2746 50.8806 24.8124 51.8231 24.1654C52.7657 23.5184 53.4843 22.571 53.9792 21.3232C54.4976 20.0522 54.7568 18.5156 54.7568 16.7132V15.604C54.7568 13.8016 54.4976 12.2765 53.9792 11.0287C53.4843 9.75775 52.7657 8.79878 51.8231 8.15177C50.8806 7.50475 49.8791 7.05415 48.8187 6.79997C47.7583 6.52268 46.533 6.38403 45.1428 6.38403C43.7525 6.38403 42.5154 6.52268 41.4315 6.79997C40.3711 7.05415 39.3696 7.50475 38.4271 8.15177C37.4845 8.79878 36.7541 9.75775 36.2357 11.0287C35.7408 12.2765 35.4934 13.8016 35.4934 15.604V16.7132C35.4934 18.5156 35.7408 20.0522 36.2357 21.3232C36.7541 22.571 37.4845 23.5184 38.4271 24.1654C39.3696 24.8124 40.3711 25.2746 41.4315 25.5519Z" fill="#4F4A45"/>
<path d="M84.9936 4.02705H89.6593L77.8185 28.2901H73.2589L61.4181 4.02705H66.2958L75.627 24.0614L84.9936 4.02705Z" fill="#4F4A45"/>
<path d="M92.2124 28.2901H87.5821L100.059 4.02705H104.548L116.99 28.2901H112.218L109.143 21.9471H95.2875L92.2124 28.2901ZM102.215 7.59719L96.772 18.8275H107.658L102.215 7.59719Z" fill="#4F4A45"/>
<path d="M130.197 28.2901H125.885V18.6196L114.398 4.02705H119.488L128.112 15.4307L136.736 4.02705H141.685L130.197 18.6196V28.2901Z" fill="#4F4A45"/>
<path d="M143.712 28.2901H139.082L151.559 4.02705H156.048L168.489 28.2901H163.718L160.643 21.9471H146.787L143.712 28.2901ZM153.715 7.59719L148.272 18.8275H159.158L153.715 7.59719Z" fill="#4F4A45"/>
<path d="M38.2391 49.588L36.9343 52.842H35.3396L39.9707 41.7136H41.7184L46.277 52.842H44.7065L43.4098 49.588H38.2391ZM40.8244 42.8509C40.7331 43.1458 40.6231 43.4748 40.4942 43.8382C40.3707 44.1962 40.2553 44.5121 40.1479 44.7859L38.7062 48.4112H42.9507L41.4929 44.7385C41.4177 44.5543 41.3184 44.2936 41.1949 43.9566C41.0714 43.6196 40.9479 43.2511 40.8244 42.8509Z" fill="#4F4A45"/>
<path d="M59.8451 51.76C61.4345 51.76 62.6291 50.9886 63.4292 49.4458L64.6856 50.0619C64.2185 51.0202 63.5607 51.7495 62.7124 52.2497C61.8694 52.7499 60.8895 53 59.7727 53C58.6236 53 57.6357 52.7657 56.8088 52.2971C55.9819 51.8284 55.3456 51.1624 54.9 50.2988C54.4597 49.43 54.2395 48.4059 54.2395 47.2265C54.2395 46.0417 54.4597 45.0255 54.9 44.1778C55.3403 43.3301 55.9738 42.6798 56.8007 42.2269C57.6276 41.7741 58.6156 41.5477 59.7646 41.5477C60.9727 41.5477 61.9821 41.7794 62.7929 42.2427C63.6037 42.7061 64.1997 43.3932 64.5809 44.3042L63.1231 44.778C62.86 44.1304 62.4359 43.6354 61.8506 43.2932C61.2707 42.9509 60.5807 42.7798 59.7807 42.7798C58.5243 42.7798 57.5471 43.1774 56.849 43.9724C56.151 44.7622 55.802 45.8469 55.802 47.2265C55.802 48.1321 55.9658 48.9272 56.2933 49.6117C56.6262 50.2909 57.0933 50.8201 57.6947 51.1992C58.3015 51.5731 59.0183 51.76 59.8451 51.76Z" fill="#4F4A45"/>
<path d="M78.8578 51.76C80.4471 51.76 81.6418 50.9886 82.4418 49.4458L83.6983 50.0619C83.2311 51.0202 82.5734 51.7495 81.725 52.2497C80.882 52.7499 79.9021 53 78.7853 53C77.6363 53 76.6483 52.7657 75.8214 52.2971C74.9945 51.8284 74.3583 51.1624 73.9126 50.2988C73.4723 49.43 73.2522 48.4059 73.2522 47.2265C73.2522 46.0417 73.4723 45.0255 73.9126 44.1778C74.3529 43.3301 74.9865 42.6798 75.8134 42.2269C76.6402 41.7741 77.6282 41.5477 78.7773 41.5477C79.9854 41.5477 80.9948 41.7794 81.8056 42.2427C82.6163 42.7061 83.2123 43.3932 83.5936 44.3042L82.1358 44.778C81.8727 44.1304 81.4485 43.6354 80.8632 43.2932C80.2834 42.9509 79.5934 42.7798 78.7934 42.7798C77.5369 42.7798 76.5597 43.1774 75.8617 43.9724C75.1637 44.7622 74.8147 45.8469 74.8147 47.2265C74.8147 48.1321 74.9784 48.9272 75.306 49.6117C75.6389 50.2909 76.106 50.8201 76.7074 51.1992C77.3141 51.5731 78.0309 51.76 78.8578 51.76Z" fill="#4F4A45"/>
<path d="M101.72 51.6099V52.842H92.7803V41.7136H101.39V42.9457H94.3186V46.5156H100.907V47.7319H94.3186V51.6099H101.72Z" fill="#4F4A45"/>
<path d="M119.766 49.7697C119.766 50.7964 119.356 51.5915 118.534 52.1549C117.718 52.7183 116.566 53 115.079 53C112.314 53 110.711 52.0575 110.271 50.1725L111.761 49.8802C111.933 50.5489 112.298 51.0413 112.856 51.3572C113.415 51.6678 114.174 51.8232 115.135 51.8232C116.129 51.8232 116.894 51.6573 117.431 51.3256C117.973 50.9886 118.244 50.4963 118.244 49.8486C118.244 49.4853 118.158 49.1905 117.987 48.9641C117.82 48.7376 117.584 48.5507 117.278 48.4033C116.972 48.2559 116.607 48.1321 116.182 48.0321C115.758 47.932 115.288 47.8241 114.773 47.7083C114.177 47.5766 113.678 47.4476 113.275 47.3212C112.878 47.1949 112.55 47.0632 112.292 46.9263C112.035 46.7842 111.814 46.6341 111.632 46.4761C111.363 46.2339 111.157 45.9522 111.012 45.631C110.872 45.3098 110.802 44.9413 110.802 44.5253C110.802 43.5723 111.173 42.8377 111.914 42.3217C112.66 41.8057 113.726 41.5477 115.111 41.5477C116.4 41.5477 117.385 41.7425 118.067 42.1322C118.749 42.5165 119.227 43.1747 119.501 44.1067L117.987 44.3673C117.82 43.7776 117.503 43.3511 117.036 43.0878C116.569 42.8193 115.922 42.685 115.095 42.685C114.188 42.685 113.495 42.8325 113.017 43.1273C112.539 43.4222 112.3 43.8619 112.3 44.4463C112.3 44.7886 112.392 45.0729 112.574 45.2993C112.762 45.5205 113.031 45.7074 113.38 45.8601C113.707 46.0128 114.402 46.205 115.466 46.4367C115.901 46.5367 116.33 46.642 116.754 46.7526C117.178 46.8579 117.578 46.9922 117.954 47.1554C118.174 47.2449 118.384 47.3555 118.582 47.4871C118.787 47.6135 118.964 47.7609 119.114 47.9294C119.318 48.1505 119.476 48.4112 119.589 48.7113C119.707 49.0114 119.766 49.3642 119.766 49.7697Z" fill="#4F4A45"/>
<path d="M137.861 49.7697C137.861 50.7964 137.45 51.5915 136.629 52.1549C135.813 52.7183 134.661 53 133.173 53C130.408 53 128.806 52.0575 128.365 50.1725L129.855 49.8802C130.027 50.5489 130.392 51.0413 130.951 51.3572C131.509 51.6678 132.269 51.8232 133.23 51.8232C134.223 51.8232 134.988 51.6573 135.525 51.3256C136.068 50.9886 136.339 50.4963 136.339 49.8486C136.339 49.4853 136.253 49.1905 136.081 48.9641C135.915 48.7376 135.678 48.5507 135.372 48.4033C135.066 48.2559 134.701 48.1321 134.277 48.0321C133.853 47.932 133.383 47.8241 132.867 47.7083C132.271 47.5766 131.772 47.4476 131.369 47.3212C130.972 47.1949 130.645 47.0632 130.387 46.9263C130.129 46.7842 129.909 46.6341 129.726 46.4761C129.458 46.2339 129.251 45.9522 129.106 45.631C128.967 45.3098 128.897 44.9413 128.897 44.5253C128.897 43.5723 129.267 42.8377 130.008 42.3217C130.755 41.8057 131.82 41.5477 133.206 41.5477C134.494 41.5477 135.48 41.7425 136.162 42.1322C136.843 42.5165 137.321 43.1747 137.595 44.1067L136.081 44.3673C135.915 43.7776 135.598 43.3511 135.131 43.0878C134.663 42.8193 134.016 42.685 133.19 42.685C132.282 42.685 131.59 42.8325 131.112 43.1273C130.634 43.4222 130.395 43.8619 130.395 44.4463C130.395 44.7886 130.486 45.0729 130.669 45.2993C130.857 45.5205 131.125 45.7074 131.474 45.8601C131.802 46.0128 132.497 46.205 133.56 46.4367C133.995 46.5367 134.425 46.642 134.849 46.7526C135.273 46.8579 135.673 46.9922 136.049 47.1554C136.269 47.2449 136.478 47.3555 136.677 47.4871C136.881 47.6135 137.058 47.7609 137.209 47.9294C137.413 48.1505 137.571 48.4112 137.684 48.7113C137.802 49.0114 137.861 49.3642 137.861 49.7697Z" fill="#4F4A45"/>
<path d="M157.751 47.2265C157.751 48.4164 157.521 49.4432 157.059 50.3067C156.602 51.1703 155.953 51.8363 155.11 52.305C154.267 52.7683 153.268 53 152.114 53C150.954 53 149.952 52.7683 149.11 52.305C148.272 51.8416 147.625 51.1782 147.168 50.3146C146.717 49.4511 146.492 48.4217 146.492 47.2265C146.492 46.0365 146.715 45.0203 147.16 44.1778C147.611 43.3301 148.256 42.6798 149.093 42.2269C149.936 41.7741 150.949 41.5477 152.13 41.5477C153.29 41.5477 154.288 41.7715 155.126 42.219C155.969 42.6666 156.616 43.3143 157.067 44.162C157.523 45.0045 157.751 46.0259 157.751 47.2265ZM156.181 47.2265C156.181 45.8417 155.827 44.7543 155.118 43.9645C154.414 43.1747 153.418 42.7798 152.13 42.7798C150.83 42.7798 149.826 43.1695 149.118 43.9487C148.409 44.728 148.054 45.8206 148.054 47.2265C148.054 48.1532 148.216 48.9588 148.538 49.6433C148.86 50.3225 149.324 50.8491 149.931 51.2229C150.538 51.5915 151.265 51.7758 152.114 51.7758C153.424 51.7758 154.428 51.3809 155.126 50.5911C155.829 49.796 156.181 48.6745 156.181 47.2265Z" fill="#4F4A45"/>
<path d="M168.533 48.2216V52.842H166.995V41.7136H172.334C173.612 41.7136 174.598 41.9953 175.29 42.5587C175.988 43.1168 176.337 43.8961 176.337 44.8965C176.337 45.7232 176.09 46.4182 175.596 46.9816C175.108 47.545 174.431 47.9004 173.567 48.0479L176.788 52.842H175.016L172.069 48.2216H168.533ZM174.791 44.9123C174.791 44.2647 174.565 43.7723 174.114 43.4354C173.669 43.0931 173.024 42.922 172.181 42.922H168.533V47.029H172.246C173.057 47.029 173.682 46.8447 174.122 46.4761C174.568 46.1023 174.791 45.581 174.791 44.9123Z" fill="#4F4A45"/>
<path d="M187.715 41.7136V52.842H186.176V41.7136H187.715Z" fill="#4F4A45"/>
<path d="M206.631 51.6099V52.842H197.691V41.7136H206.301V42.9457H199.229V46.5156H205.817V47.7319H199.229V51.6099H206.631Z" fill="#4F4A45"/>
<path d="M224.677 49.7697C224.677 50.7964 224.266 51.5915 223.445 52.1549C222.628 52.7183 221.477 53 219.989 53C217.224 53 215.621 52.0575 215.181 50.1725L216.671 49.8802C216.843 50.5489 217.208 51.0413 217.767 51.3572C218.325 51.6678 219.085 51.8232 220.046 51.8232C221.039 51.8232 221.804 51.6573 222.341 51.3256C222.884 50.9886 223.155 50.4963 223.155 49.8486C223.155 49.4853 223.069 49.1905 222.897 48.9641C222.731 48.7376 222.494 48.5507 222.188 48.4033C221.882 48.2559 221.517 48.1321 221.093 48.0321C220.669 47.932 220.199 47.8241 219.683 47.7083C219.087 47.5766 218.588 47.4476 218.185 47.3212C217.788 47.1949 217.46 47.0632 217.203 46.9263C216.945 46.7842 216.725 46.6341 216.542 46.4761C216.274 46.2339 216.067 45.9522 215.922 45.631C215.783 45.3098 215.713 44.9413 215.713 44.5253C215.713 43.5723 216.083 42.8377 216.824 42.3217C217.571 41.8057 218.636 41.5477 220.022 41.5477C221.31 41.5477 222.296 41.7425 222.977 42.1322C223.659 42.5165 224.137 43.1747 224.411 44.1067L222.897 44.3673C222.731 43.7776 222.414 43.3511 221.947 43.0878C221.479 42.8193 220.832 42.685 220.006 42.685C219.098 42.685 218.405 42.8325 217.928 43.1273C217.45 43.4222 217.211 43.8619 217.211 44.4463C217.211 44.7886 217.302 45.0729 217.485 45.2993C217.673 45.5205 217.941 45.7074 218.29 45.8601C218.618 46.0128 219.313 46.205 220.376 46.4367C220.811 46.5367 221.241 46.642 221.665 46.7526C222.089 46.8579 222.489 46.9922 222.865 47.1554C223.085 47.2449 223.294 47.3555 223.493 47.4871C223.697 47.6135 223.874 47.7609 224.025 47.9294C224.229 48.1505 224.387 48.4112 224.5 48.7113C224.618 49.0114 224.677 49.3642 224.677 49.7697Z" fill="#4F4A45"/>
<path d="M224.708 28.2901H220.396V18.6196L208.908 4.02705H213.998L222.623 15.4307L231.247 4.02705H236.195L224.708 18.6196V28.2901Z" fill="#4F4A45"/>
<path d="M238.223 28.2901H233.592L246.069 4.02705H250.558L263 28.2901H258.228L255.153 21.9471H241.298L238.223 28.2901ZM248.226 7.59719L242.782 18.8275H253.669L248.226 7.59719Z" fill="#4F4A45"/>
<path fill-rule="evenodd" clip-rule="evenodd" d="M178.169 10.2248C180.116 11.134 181.715 11.8493 181.724 11.8145C181.732 11.7797 181.985 10.2382 182.285 8.38897L182.83 5.02663L174.63 8.57194L178.169 10.2248ZM189.155 5.41838C190.749 6.44853 192.08 7.30554 192.112 7.32279C192.144 7.34006 192.684 5.69951 193.312 3.67707L194.455 0L186.256 3.54531L189.155 5.41838ZM184.284 8.32081L183.746 11.6217L190.603 8.65674L187.755 6.81978C186.189 5.80942 184.888 4.99116 184.864 5.00137C184.841 5.01157 184.579 6.50534 184.284 8.32081ZM173.456 11.5073C173.344 12.1216 173.094 13.4883 172.9 14.5441L172.547 16.4639L179.946 13.2646L176.837 11.8124C175.128 11.0136 173.713 10.3669 173.694 10.3752C173.675 10.3834 173.568 10.8929 173.456 11.5073ZM195.406 3.78347L194.402 7.01388L201.802 3.81453L200.118 2.77516C199.192 2.20353 197.995 1.46289 197.457 1.12941C196.919 0.795937 196.463 0.529796 196.444 0.538047C196.425 0.546323 195.958 2.00676 195.406 3.78347ZM173.717 18.436C173.915 18.5689 193.377 28.4262 193.385 28.3981C193.389 28.385 190.902 25.2766 187.857 21.4905L182.322 14.6068L177.952 16.4764C173.662 18.3117 173.585 18.3475 173.717 18.436ZM184.16 13.8699C184.195 13.9083 186.592 16.8919 189.486 20.5003C192.381 24.1086 194.762 27.0554 194.777 27.0486C194.793 27.0418 194.18 23.3305 193.416 18.8012C192.651 14.272 192.021 10.5245 192.016 10.4733C192.008 10.3996 191.191 10.7327 188.052 12.0903C184.912 13.4479 184.11 13.8146 184.16 13.8699ZM193.829 9.70254C193.854 9.9605 196.712 26.9413 196.731 26.9504C196.757 26.9624 202.398 6.45712 202.472 6.08459L202.521 5.83379L198.17 7.71524C194.464 9.31749 193.82 9.61245 193.829 9.70254Z" fill="#FE4947"/>
</svg>
