<svg width="40" height="40" viewBox="0 0 40 40" fill="none" xmlns="http://www.w3.org/2000/svg">
<path d="M21.7218 20L33.6122 8.10959C33.7319 7.99806 33.8279 7.86356 33.8945 7.71411C33.9611 7.56467 33.9969 7.40335 33.9998 7.23977C34.0027 7.07619 33.9726 6.91371 33.9113 6.76201C33.8501 6.61031 33.7589 6.47251 33.6432 6.35683C33.5275 6.24114 33.3897 6.14994 33.238 6.08867C33.0863 6.02739 32.9238 5.9973 32.7602 6.00019C32.5966 6.00308 32.4353 6.03888 32.2859 6.10547C32.1364 6.17205 32.0019 6.26806 31.8904 6.38775L20 18.2782L8.10959 6.38775C7.87864 6.17255 7.57318 6.0554 7.25757 6.06097C6.94195 6.06654 6.64081 6.19439 6.4176 6.4176C6.19439 6.64081 6.06654 6.94195 6.06097 7.25757C6.0554 7.57318 6.17255 7.87864 6.38775 8.10959L18.2782 20L6.38775 31.8904C6.26806 32.0019 6.17205 32.1364 6.10547 32.2859C6.03888 32.4353 6.00308 32.5966 6.00019 32.7602C5.9973 32.9238 6.02739 33.0863 6.08867 33.238C6.14994 33.3897 6.24114 33.5275 6.35683 33.6432C6.47251 33.7589 6.61031 33.8501 6.76201 33.9113C6.91371 33.9726 7.07619 34.0027 7.23977 33.9998C7.40335 33.9969 7.56467 33.9611 7.71411 33.8945C7.86356 33.8279 7.99806 33.7319 8.10959 33.6122L20 21.7218L31.8904 33.6122C32.0019 33.7319 32.1364 33.8279 32.2859 33.8945C32.4353 33.9611 32.5966 33.9969 32.7602 33.9998C32.9238 34.0027 33.0863 33.9726 33.238 33.9113C33.3897 33.8501 33.5275 33.7589 33.6432 33.6432C33.7589 33.5275 33.8501 33.3897 33.9113 33.238C33.9726 33.0863 34.0027 32.9238 33.9998 32.7602C33.9969 32.5966 33.9611 32.4353 33.8945 32.2859C33.8279 32.1364 33.7319 32.0019 33.6122 31.8904L21.7218 20Z" fill="#AAA49E"/>
</svg>
