<svg width="16" height="17" viewBox="0 0 16 17" fill="none" xmlns="http://www.w3.org/2000/svg">
<g clip-path="url(#clip0_639_5858)">
<path d="M15.3333 7.83333H8.66667V1.16667C8.66667 0.989856 8.59643 0.820286 8.4714 0.695262C8.34638 0.570238 8.17681 0.5 8 0.5V0.5C7.82319 0.5 7.65362 0.570238 7.5286 0.695262C7.40357 0.820286 7.33333 0.989856 7.33333 1.16667V7.83333H0.666667C0.489856 7.83333 0.320286 7.90357 0.195262 8.0286C0.0702379 8.15362 0 8.32319 0 8.5H0C0 8.67681 0.0702379 8.84638 0.195262 8.9714C0.320286 9.09643 0.489856 9.16667 0.666667 9.16667H7.33333V15.8333C7.33333 16.0101 7.40357 16.1797 7.5286 16.3047C7.65362 16.4298 7.82319 16.5 8 16.5C8.17681 16.5 8.34638 16.4298 8.4714 16.3047C8.59643 16.1797 8.66667 16.0101 8.66667 15.8333V9.16667H15.3333C15.5101 9.16667 15.6797 9.09643 15.8047 8.9714C15.9298 8.84638 16 8.67681 16 8.5C16 8.32319 15.9298 8.15362 15.8047 8.0286C15.6797 7.90357 15.5101 7.83333 15.3333 7.83333Z" fill="#4F4A45"/>
</g>
<defs>
<clipPath id="clip0_639_5858">
<rect width="16" height="16" fill="white" transform="translate(0 0.5)"/>
</clipPath>
</defs>
</svg>
