<svg width="20" height="21" viewBox="0 0 20 21" fill="none" xmlns="http://www.w3.org/2000/svg">
<path d="M19.707 18.793L15.1683 14.2543C16.3545 12.7598 17.0001 10.908 17 8.99998C17 4.31347 13.187 0.5 8.49998 0.5C3.81295 0.5 0 4.31347 0 8.99998C0 13.6865 3.81295 17.5 8.49998 17.5C10.408 17.5001 12.2598 16.8545 13.7542 15.6682L18.293 20.207C18.4809 20.3926 18.7346 20.4963 18.9987 20.4955C19.2628 20.4946 19.5158 20.3893 19.7026 20.2026C19.8893 20.0158 19.9946 19.7628 19.9955 19.4987C19.9963 19.2346 19.8926 18.9809 19.707 18.793V18.793ZM1.99997 8.99998C1.99997 5.41602 4.91602 2.49997 8.49998 2.49997C12.084 2.49997 15 5.41602 15 8.99998C15 12.584 12.084 15.5 8.49998 15.5C4.91602 15.5 1.99997 12.584 1.99997 8.99998Z" fill="#FEFDFD"/>
</svg>
