<svg width="20" height="20" viewBox="0 0 20 20" fill="none" xmlns="http://www.w3.org/2000/svg">
<path d="M19.707 18.293L15.1683 13.7543C16.3545 12.2598 17.0001 10.408 17 8.49998C17 3.81347 13.187 0 8.49998 0C3.81295 0 0 3.81347 0 8.49998C0 13.1865 3.81295 17 8.49998 17C10.408 17.0001 12.2598 16.3545 13.7542 15.1682L18.293 19.707C18.4809 19.8926 18.7346 19.9963 18.9987 19.9955C19.2628 19.9946 19.5158 19.8893 19.7026 19.7026C19.8893 19.5158 19.9946 19.2628 19.9955 18.9987C19.9963 18.7346 19.8926 18.4809 19.707 18.293ZM1.99997 8.49998C1.99997 4.91602 4.91602 1.99997 8.49998 1.99997C12.084 1.99997 15 4.91602 15 8.49998C15 12.084 12.084 15 8.49998 15C4.91602 15 1.99997 12.084 1.99997 8.49998Z" fill="#4F4A45"/>
</svg>
