<svg width="32" height="32" viewBox="0 0 32 32" fill="none" xmlns="http://www.w3.org/2000/svg">
<rect width="32" height="32" rx="16" fill="#FAF9F9"/>
<g clip-path="url(#clip0_120_1012)">
<path d="M23.3467 10.0772C22.3917 9.17136 21.1255 8.62061 19.7784 8.52512C18.4313 8.42964 17.0928 8.79575 16.0063 9.55689C14.8618 8.74967 13.4372 8.38364 12.0194 8.53251C10.6017 8.68137 9.29606 9.33408 8.3655 10.3592C7.43494 11.3843 6.94856 12.7057 7.00431 14.0572C7.06007 15.4087 7.65381 16.69 8.66597 17.6431L15.3677 23.9977C15.4513 24.0776 15.5508 24.1411 15.6604 24.1844C15.77 24.2277 15.8876 24.25 16.0063 24.25C16.1251 24.25 16.2427 24.2277 16.3523 24.1844C16.4619 24.1411 16.5614 24.0776 16.645 23.9977L23.3467 17.6431C23.8709 17.1464 24.2866 16.5567 24.5703 15.9076C24.854 15.2585 25 14.5628 25 13.8601C25 13.1575 24.854 12.4618 24.5703 11.8127C24.2866 11.1636 23.8709 10.5739 23.3467 10.0772ZM22.0783 16.4404L16.0063 22.1894L9.93435 16.4404C9.39927 15.9309 9.03477 15.2829 8.88657 14.5778C8.73837 13.8726 8.81308 13.1417 9.10131 12.4766C9.38955 11.8116 9.87848 11.242 10.5068 10.8394C11.1351 10.4369 11.8747 10.2192 12.633 10.2137C13.646 10.216 14.6166 10.5995 15.3317 11.2799C15.4153 11.3598 15.5148 11.4233 15.6244 11.4666C15.734 11.5099 15.8516 11.5322 15.9704 11.5322C16.0891 11.5322 16.2067 11.5099 16.3163 11.4666C16.4259 11.4233 16.5254 11.3598 16.6091 11.2799C17.3452 10.675 18.2962 10.358 19.2695 10.3928C20.2429 10.4277 21.1659 10.8119 21.8518 11.4677C22.5377 12.1235 22.9353 13.0019 22.9639 13.9251C22.9926 14.8483 22.7223 15.7474 22.0783 16.4404Z" fill="#B6B6B6"/>
</g>
<defs>
<clipPath id="clip0_120_1012">
<rect width="18" height="18" fill="white" transform="translate(7 7)"/>
</clipPath>
</defs>
</svg>
