<svg width="16" height="16" viewBox="0 0 16 16" fill="none" xmlns="http://www.w3.org/2000/svg">
<path d="M8.17297 3.16505C8.12644 3.12054 8.06454 3.0957 8.00016 3.0957C7.93577 3.0957 7.87387 3.12054 7.82734 3.16505L2.07422 8.66099C2.04979 8.68436 2.03035 8.71244 2.01708 8.74354C2.00381 8.77464 1.99699 8.80811 1.99703 8.84192L1.99609 14C1.99609 14.2653 2.10145 14.5196 2.28899 14.7072C2.47652 14.8947 2.73088 15 2.99609 15H5.99922C6.13183 15 6.259 14.9474 6.35277 14.8536C6.44654 14.7598 6.49922 14.6327 6.49922 14.5V10.25C6.49922 10.1837 6.52556 10.1202 6.57244 10.0733C6.61933 10.0264 6.68291 10 6.74922 10H9.24922C9.31552 10 9.37911 10.0264 9.426 10.0733C9.47288 10.1202 9.49922 10.1837 9.49922 10.25V14.5C9.49922 14.6327 9.5519 14.7598 9.64567 14.8536C9.73943 14.9474 9.86661 15 9.99922 15H13.0011C13.2663 15 13.5207 14.8947 13.7082 14.7072C13.8957 14.5196 14.0011 14.2653 14.0011 14V8.84192C14.0011 8.80811 13.9943 8.77464 13.981 8.74354C13.9678 8.71244 13.9483 8.68436 13.9239 8.66099L8.17297 3.16505Z" fill="#AAA49E"/>
<path d="M15.3409 7.62969L13.0034 5.39344V2C13.0034 1.86739 12.9508 1.74021 12.857 1.64645C12.7632 1.55268 12.6361 1.5 12.5034 1.5H11.0034C10.8708 1.5 10.7437 1.55268 10.6499 1.64645C10.5561 1.74021 10.5034 1.86739 10.5034 2V3L8.69345 1.26937C8.52407 1.09812 8.2722 1 8.00001 1C7.72876 1 7.47751 1.09813 7.30814 1.26969L0.661262 7.62906C0.466887 7.81656 0.442512 8.125 0.619387 8.32812C0.663803 8.3794 0.718187 8.42109 0.77923 8.45068C0.840273 8.48027 0.906698 8.49712 0.974462 8.50022C1.04223 8.50332 1.10991 8.4926 1.1734 8.46871C1.23689 8.44481 1.29485 8.40825 1.34376 8.36125L7.82814 2.165C7.87466 2.12049 7.93656 2.09565 8.00095 2.09565C8.06533 2.09565 8.12724 2.12049 8.17376 2.165L14.6588 8.36125C14.7543 8.45286 14.8822 8.50285 15.0146 8.50028C15.1469 8.4977 15.2728 8.44276 15.3647 8.3475C15.5566 8.14875 15.5406 7.82062 15.3409 7.62969Z" fill="#AAA49E"/>
</svg>
