<svg width="24" height="24" viewBox="0 0 24 24" fill="none" xmlns="http://www.w3.org/2000/svg">
<g clip-path="url(#clip0_789_6481)">
<path d="M23.8375 12.4947C24.0628 12.1861 24.053 11.7648 23.813 11.466C20.1831 7.00339 16.2642 4.74023 12.1592 4.74023C5.19827 4.74023 0.363346 11.226 0.162503 11.5003C-0.0628328 11.8089 -0.0530355 12.2302 0.186996 12.529C3.81197 16.9966 7.73085 19.2597 11.8359 19.2597C18.7968 19.2597 23.6317 12.774 23.8375 12.4947ZM11.8359 17.5795C8.41666 17.5795 5.08561 15.6984 1.9211 11.9951C3.16045 10.5304 7.09893 6.42046 12.1592 6.42046C15.5784 6.42046 18.9095 8.30152 22.074 12.0049C20.8346 13.4696 16.8962 17.5795 11.8359 17.5795Z" fill="#AAA49E"/>
<path d="M11.9972 7.7334C9.64583 7.7334 7.73047 9.64875 7.73047 12.0001C7.73047 14.3514 9.64583 16.2668 11.9972 16.2668C14.3485 16.2668 16.2638 14.3514 16.2638 12.0001C16.2638 9.64875 14.3485 7.7334 11.9972 7.7334ZM11.9972 14.5866C10.5717 14.5866 9.41069 13.4256 9.41069 12.0001C9.41069 10.5746 10.5717 9.41362 11.9972 9.41362C13.4227 9.41362 14.5836 10.5746 14.5836 12.0001C14.5836 13.4256 13.4227 14.5866 11.9972 14.5866Z" fill="#AAA49E"/>
</g>
<defs>
<clipPath id="clip0_789_6481">
<rect width="24" height="24" fill="white"/>
</clipPath>
</defs>
</svg>
