<svg width="40" height="40" viewBox="0 0 40 40" fill="none" xmlns="http://www.w3.org/2000/svg">
<g clip-path="url(#clip0_402_4066)">
<path fill-rule="evenodd" clip-rule="evenodd" d="M1 19.4622L35.9261 19.4622C34.2634 20.082 32.714 20.7914 31.2943 21.5355C27.7047 23.2414 23.8732 25.5058 21.1665 28.2156C20.782 28.5609 20.4837 29.1667 20.8723 29.6761C21.0632 29.9263 21.3703 30.039 21.6727 29.988C21.9641 29.9387 22.1897 29.754 22.3415 29.5379C22.3415 29.5379 22.3453 29.5326 22.3548 29.5209C22.3652 29.5082 22.3794 29.4912 22.3982 29.4696C22.4359 29.4265 22.4873 29.3701 22.553 29.301C22.6842 29.1629 22.866 28.9807 23.0967 28.7616C23.5578 28.3236 24.2081 27.7443 25.0296 27.083C26.671 25.7616 28.9883 24.1191 31.8376 22.6235C34.7862 21.2238 37.5964 20.1949 39.5004 19.6102C39.8267 19.51 40.0365 19.1916 39.9947 18.854C40.0365 18.5164 39.8267 18.198 39.5004 18.0978C37.5964 17.5131 34.7862 16.4842 31.8376 15.0845C28.9883 13.5889 26.671 11.9464 25.0296 10.625C24.2081 9.96368 23.5578 9.38436 23.0967 8.94644C22.866 8.72734 22.6842 8.54514 22.553 8.40705C22.4873 8.33791 22.4359 8.28155 22.3982 8.23838C22.3794 8.21683 22.3652 8.19984 22.3548 8.18713C22.3516 8.18312 22.349 8.17987 22.347 8.17732C22.3431 8.1724 22.3415 8.1701 22.3415 8.1701C22.1897 7.954 21.9641 7.76928 21.6727 7.72006C21.3703 7.66897 21.0632 7.78172 20.8723 8.03192C20.4837 8.54132 20.782 9.1471 21.1665 9.49242C23.8732 12.2022 27.7047 14.4666 31.2943 16.1725C32.714 16.9166 34.2634 17.626 35.9261 18.2458L1.60795 18.2458C1.60001 18.2458 1.59211 18.246 1.58424 18.2463H1L1 18.8538V19.4622Z" fill="#4F4A45"/>
</g>
<defs>
<clipPath id="clip0_402_4066">
<rect width="40" height="40" fill="white" transform="translate(0 40) rotate(-90)"/>
</clipPath>
</defs>
</svg>
