<svg width="40" height="40" viewBox="0 0 40 40" fill="none" xmlns="http://www.w3.org/2000/svg">
<g clip-path="url(#clip0_402_4060)">
<path fill-rule="evenodd" clip-rule="evenodd" d="M39 19.4622L4.07388 19.4622C5.73662 20.082 7.28604 20.7914 8.70574 21.5355C12.2953 23.2414 16.1268 25.5058 18.8335 28.2156C19.218 28.5609 19.5163 29.1667 19.1277 29.6761C18.9368 29.9263 18.6297 30.039 18.3273 29.988C18.0359 29.9387 17.8103 29.754 17.6585 29.5379C17.6585 29.5379 17.6547 29.5326 17.6452 29.5209C17.6348 29.5082 17.6206 29.4912 17.6018 29.4696C17.5641 29.4265 17.5127 29.3701 17.447 29.301C17.3158 29.1629 17.134 28.9807 16.9033 28.7616C16.4422 28.3236 15.7919 27.7443 14.9704 27.083C13.329 25.7616 11.0117 24.1191 8.16236 22.6235C5.21384 21.2238 2.40363 20.1949 0.499603 19.6102C0.173286 19.51 -0.036541 19.1916 0.0052948 18.854C-0.0365372 18.5164 0.173286 18.198 0.499607 18.0978C2.40363 17.5131 5.21384 16.4842 8.16237 15.0845C11.0117 13.5889 13.329 11.9464 14.9704 10.625C15.7919 9.96368 16.4422 9.38436 16.9033 8.94644C17.134 8.72734 17.3158 8.54514 17.447 8.40705C17.5127 8.33791 17.5641 8.28155 17.6018 8.23838C17.6206 8.21683 17.6348 8.19984 17.6452 8.18713C17.6484 8.18312 17.651 8.17987 17.653 8.17732C17.6569 8.1724 17.6585 8.1701 17.6585 8.1701C17.8103 7.954 18.0359 7.76928 18.3273 7.72006C18.6297 7.66897 18.9368 7.78172 19.1277 8.03192C19.5163 8.54132 19.218 9.1471 18.8335 9.49242C16.1268 12.2022 12.2953 14.4666 8.70575 16.1725C7.28605 16.9166 5.73662 17.626 4.07388 18.2458L38.392 18.2458C38.4 18.2458 38.4079 18.246 38.4158 18.2463H39V18.8538V19.4622Z" fill="#4F4A45"/>
</g>
<defs>
<clipPath id="clip0_402_4060">
<rect width="40" height="40" fill="white" transform="matrix(0 -1 -1 0 40 40)"/>
</clipPath>
</defs>
</svg>
